<?xml version="1.0" standalone="no"?><!DOCTYPE svg PUBLIC "-//W3C//DTD SVG 1.1//EN" "http://www.w3.org/Graphics/SVG/1.1/DTD/svg11.dtd"><svg t="1688345560903" class="icon" viewBox="0 0 1024 1024" version="1.1" xmlns="http://www.w3.org/2000/svg" p-id="1993" xmlns:xlink="http://www.w3.org/1999/xlink" width="200" height="200"><path d="M1020.6835 895.911354c4.44621 22.231051 0 46.685207-13.338631 66.693153-11.115525 17.784841-31.123471 31.123471-51.131417 35.569681L825.050251 1022.628344c-20.007946 4.44621-42.238997-2.223105-57.800732-15.561736-17.784841-15.561736-28.900366-35.569682-33.346576-57.800732L622.747688 153.394252c-2.223105-22.231051 2.223105-46.685207 13.33863-66.693153 6.669315-8.89242 13.338631-17.784841 22.231051-24.454156 8.89242-4.44621 20.007946-8.89242 31.123472-11.115526l131.1632-24.454156c22.231051-4.44621 42.238997 2.223105 60.023838 15.561736 17.784841 15.561736 28.900366 35.569682 31.123471 60.023837l108.93215 793.64852zM511.592433 0c22.231051 0 42.238997 8.89242 55.577627 26.677261 15.561736 17.784841 24.454156 40.015892 22.231051 62.246943v820.32578c0 22.231051-6.669315 44.462102-22.231051 62.246943-13.338631 15.561736-33.346576 26.677261-55.577627 26.677261h-113.37836c-22.231051 0-42.238997-8.89242-55.577627-26.677261-15.561736-17.784841-24.454156-40.015892-22.231051-62.246943V88.924204c0-22.231051 4.44621-44.462102 17.78484-62.246943 8.89242-17.784841 28.900366-26.677261 48.908313-26.677261H511.592433z m26.677261 620.246322c8.89242 0 15.561736-4.44621 17.784841-11.115526 11.115525-17.784841 11.115525-37.792787 0-55.577627-4.44621-6.669315-11.115525-11.115525-17.784841-11.115526h-113.37836c-6.669315 0-15.561736 4.44621-17.784841 11.115526-11.115525 17.784841-11.115525 37.792787 0 55.577627 4.44621 6.669315 11.115525 11.115525 17.784841 11.115526h113.37836z m0-157.840462c8.89242 0 15.561736-4.44621 17.784841-11.115526 4.44621-8.89242 8.89242-17.784841 6.669315-28.900366 0-8.89242-2.223105-20.007946-6.669315-28.900366-4.44621-6.669315-11.115525-11.115525-17.784841-11.115525h-113.37836c-6.669315 0-15.561736 4.44621-17.784841 11.115525-4.44621 8.89242-8.89242 17.784841-6.669315 28.900366 0 11.115525 2.223105 20.007946 6.669315 28.900366 4.44621 6.669315 11.115525 11.115525 17.784841 11.115526h113.37836zM193.688404 0c22.231051 0 42.238997 8.89242 55.577628 26.677261 17.784841 15.561736 24.454156 37.792787 24.454156 62.246943v820.32578c0 22.231051-8.89242 46.685207-24.454156 62.246943-13.338631 15.561736-35.569682 26.677261-55.577628 26.677261H80.310044c-22.231051 0-42.238997-8.89242-55.577627-26.677261C9.170681 955.935191 0.278261 931.481035 0.278261 909.249984V88.924204c0-22.231051 8.89242-46.685207 24.454156-62.246943C38.071048 8.89242 58.078993 0 80.310044 0h113.37836zM84.756255 306.788503c-8.89242 0-15.561736 4.44621-20.007946 11.115526-11.115525 17.784841-11.115525 37.792787 0 55.577627 4.44621 6.669315 11.115525 11.115525 20.007946 11.115526h104.485939c8.89242 0 15.561736-4.44621 20.007946-11.115526 4.44621-8.89242 6.669315-17.784841 6.669315-26.677261s-2.223105-20.007946-6.669315-28.900366c-4.44621-6.669315-11.115525-11.115525-20.007946-11.115526H84.756255z m108.932149 386.820287c8.89242 0 15.561736-4.44621 20.007946-11.115526 4.44621-8.89242 6.669315-17.784841 6.669315-26.677261 0-8.89242-2.223105-20.007946-6.669315-26.677261-4.44621-6.669315-11.115525-11.115525-20.007946-11.115525H84.756255c-8.89242 0-15.561736 4.44621-20.007946 11.115525-11.115525 17.784841-11.115525 37.792787 0 55.577628 4.44621 6.669315 11.115525 11.115525 20.007946 11.115525l108.932149-2.223105z m0-151.171147c8.89242 0 15.561736-4.44621 20.007946-11.115525 4.44621-8.89242 6.669315-17.784841 6.669315-28.900366 0-8.89242-2.223105-20.007946-6.669315-28.900367-4.44621-6.669315-11.115525-11.115525-20.007946-11.115525H84.756255c-8.89242 0-15.561736 4.44621-20.007946 11.115525-11.115525 17.784841-11.115525 40.015892 0 55.577628 4.44621 6.669315 11.115525 11.115525 20.007946 11.115525l108.932149 2.223105z" p-id="1994"></path></svg>