<?xml version="1.0" standalone="no"?><!DOCTYPE svg PUBLIC "-//W3C//DTD SVG 1.1//EN" "http://www.w3.org/Graphics/SVG/1.1/DTD/svg11.dtd"><svg t="1688345519099" class="icon" viewBox="0 0 1024 1024" version="1.1" xmlns="http://www.w3.org/2000/svg" p-id="1851" xmlns:xlink="http://www.w3.org/1999/xlink" width="200" height="200"><path d="M512 636.66087c-51.2 0-93.495652 42.295652-93.495652 93.495652 0 51.2 42.295652 93.495652 93.495652 93.495652 51.2 0 93.495652-42.295652 93.495652-93.495652 0-24.486957-8.904348-48.973913-26.713043-66.782609-17.808696-17.808696-42.295652-26.713043-66.782609-26.713043z" p-id="1852"></path><path d="M512 0L0 436.313043v40.069566h146.921739v476.382608C146.921739 990.608696 178.086957 1024 220.382609 1024h182.53913v-2.226087H623.304348v2.226087h182.53913c40.069565 0 73.46087-33.391304 73.46087-73.46087V476.382609H1024v-40.069566L512 0z m220.382609 747.965217c0 6.678261-4.452174 13.356522-13.356522 15.582609l-46.747826 8.904348c-4.452174 0-8.904348 4.452174-11.130435 11.130435-2.226087 4.452174-4.452174 8.904348-4.452174 13.356521-2.226087 4.452174-2.226087 11.130435 2.226087 15.582609l26.713044 40.069565c4.452174 6.678261 2.226087 15.582609-2.226087 20.034783l-26.713044 26.713043c-4.452174 4.452174-13.356522 6.678261-20.034782 2.226087l-40.069566-26.713043c-4.452174-2.226087-11.130435-4.452174-15.582608-2.226087-4.452174 2.226087-8.904348 4.452174-13.356522 4.452174-4.452174 2.226087-8.904348 6.678261-11.130435 11.130435l-8.904348 46.747826c-2.226087 6.678261-8.904348 13.356522-15.582608 13.356521h-37.843479c-6.678261 0-13.356522-4.452174-15.582608-13.356521l-11.130435-44.521739c0-4.452174-4.452174-8.904348-11.130435-11.130435-4.452174-2.226087-8.904348-4.452174-13.356522-4.452174-4.452174-2.226087-11.130435-2.226087-15.582608 2.226087l-40.069566 26.713043c-6.678261 4.452174-15.582609 2.226087-20.034782-2.226087l-26.713044-26.713043c-4.452174-4.452174-6.678261-13.356522-2.226087-20.034783l26.713044-40.069565c2.226087-4.452174 4.452174-11.130435 2.226087-15.582609-2.226087-4.452174-4.452174-8.904348-4.452174-13.356521-2.226087-4.452174-6.678261-8.904348-11.130435-11.130435l-46.747826-8.904348c-6.678261-2.226087-13.356522-8.904348-13.356522-15.582609V712.347826c0-6.678261 4.452174-13.356522 13.356522-15.582609l46.747826-8.904347c4.452174 0 8.904348-4.452174 11.130435-11.130435 2.226087-4.452174 4.452174-8.904348 4.452174-13.356522 2.226087-4.452174 2.226087-11.130435-2.226087-15.582609l-26.713044-40.069565c-4.452174-6.678261-2.226087-15.582609 2.226087-20.034782l26.713044-26.713044c4.452174-4.452174 13.356522-6.678261 20.034782-2.226087l40.069566 26.713044c4.452174 2.226087 11.130435 4.452174 15.582608 2.226087 4.452174-2.226087 8.904348-4.452174 13.356522-4.452174 4.452174-2.226087 8.904348-6.678261 11.130435-11.130435l8.904348-46.747826c2.226087-6.678261 8.904348-13.356522 15.582608-13.356522h37.843479c6.678261 0 13.356522 4.452174 15.582608 13.356522l8.904348 46.747826c0 4.452174 4.452174 8.904348 11.130435 11.130435 4.452174 2.226087 8.904348 4.452174 13.356522 4.452174 4.452174 2.226087 11.130435 2.226087 15.582608-2.226087l40.069566-26.713044c6.678261-4.452174 15.582609-2.226087 20.034782 2.226087l26.713044 26.713044c4.452174 4.452174 6.678261 13.356522 2.226087 20.034782l-26.713044 40.069565c-2.226087 4.452174-4.452174 11.130435-2.226087 15.582609 2.226087 4.452174 4.452174 8.904348 4.452174 13.356522 2.226087 4.452174 6.678261 8.904348 11.130435 11.130435l46.747826 8.904347c6.678261 2.226087 13.356522 8.904348 13.356522 15.582609l2.226087 35.617391z" p-id="1853"></path></svg>