<?xml version="1.0" standalone="no"?><!DOCTYPE svg PUBLIC "-//W3C//DTD SVG 1.1//EN" "http://www.w3.org/Graphics/SVG/1.1/DTD/svg11.dtd"><svg t="1688345187988" class="icon" viewBox="0 0 1024 1024" version="1.1" xmlns="http://www.w3.org/2000/svg" p-id="1562" xmlns:xlink="http://www.w3.org/1999/xlink" width="200" height="200"><path d="M395.432236 766.334056c0-188.806941 155.488069-339.852495 344.295011-339.852494 73.301518 0 142.160521 22.212581 202.13449 64.416486V57.752711c0-31.097614-26.655098-57.752711-57.752711-57.752711H80.013581C48.915967 0 22.26087 24.433839 22.26087 57.752711v908.494578C22.26087 997.344902 48.915967 1021.778742 80.013581 1021.778742h433.145336c-73.301518-62.195228-117.726681-153.266811-117.726681-255.444686z m428.70282-439.80911c-4.442516 8.885033-15.548807 13.327549-26.655097 13.327549H539.814015c-15.548807 0-28.876356-13.327549-28.876356-28.876356s13.327549-28.876356 28.876356-28.876356h257.665944c11.106291 0 19.991323 4.442516 26.655097 13.327549 4.442516 11.106291 4.442516 22.212581 0 31.097614zM513.158917 155.488069c4.442516-8.885033 15.548807-13.327549 26.655098-13.327548h257.665944c11.106291 0 19.991323 4.442516 26.655097 13.327548 4.442516 8.885033 4.442516 19.991323 0 28.876356s-15.548807 13.327549-26.655097 13.327549H539.814015c-11.106291 0-19.991323-4.442516-26.655098-13.327549-4.442516-8.885033-4.442516-19.991323 0-28.876356zM279.926813 113.284165c46.646421 0 86.629067 37.761388 86.629067 84.407809 0 46.646421-37.761388 84.407809-86.629067 84.407809-46.646421 0-86.629067-37.761388-86.629067-84.407809 2.221258-46.646421 39.982646-84.407809 86.629067-84.407809zM108.889937 397.605206c0-46.646421 37.761388-84.407809 86.629067-84.407809h173.258135c22.212581 0 44.425163 8.885033 59.973969 24.433839 15.548807 15.548807 24.433839 37.761388 24.43384 59.97397v57.752712H108.889937v-57.752712z" p-id="1563"></path><path d="M959.631802 764.112798c0-22.212581 15.548807-42.203905 39.982647-48.867679-11.106291-57.752711-44.425163-106.62039-86.629068-144.381778-15.548807 15.548807-44.425163 19.991323-62.195227 6.663774-19.991323-11.106291-31.097614-33.318872-24.43384-57.752712-26.655098-6.663774-59.97397-15.548807-86.629067-15.548806-31.097614 0-59.97397 4.442516-86.629067 15.548806 8.885033 22.212581-4.442516 46.646421-24.43384 57.752712-19.991323 11.106291-46.646421 6.663774-62.195227-6.663774-44.425163 37.761388-75.522777 86.629067-86.629068 144.381778 24.433839 4.442516 39.982646 26.655098 39.982647 48.867679s-15.548807 42.203905-39.982647 48.867679c11.106291 57.752711 44.425163 106.62039 86.629068 144.381779 15.548807-15.548807 44.425163-19.991323 62.195227-6.663774 19.991323 11.106291 31.097614 33.318872 24.43384 57.752711 26.655098 6.663774 59.97397 15.548807 86.629067 15.548807 31.097614 0 59.97397-4.442516 86.629067-15.548807-8.885033-22.212581 4.442516-46.646421 24.43384-57.752711 19.991323-11.106291 46.646421-6.663774 62.195227 6.663774 44.425163-37.761388 75.522777-86.629067 86.629068-144.381779-24.433839-6.663774-39.982646-26.655098-39.982647-48.867679z m-224.347071 106.620391c-62.195228 0-115.505423-48.867679-115.505423-111.062907 0-59.97397 51.088937-111.062907 115.505423-111.062907 62.195228 0 115.505423 48.867679 115.505423 111.062907 0 59.97397-53.310195 111.062907-115.505423 111.062907z" p-id="1564"></path></svg>