<?xml version="1.0" standalone="no"?><!DOCTYPE svg PUBLIC "-//W3C//DTD SVG 1.1//EN" "http://www.w3.org/Graphics/SVG/1.1/DTD/svg11.dtd"><svg t="1688345996713" class="icon" viewBox="0 0 1024 1024" version="1.1" xmlns="http://www.w3.org/2000/svg" p-id="2136" xmlns:xlink="http://www.w3.org/1999/xlink" width="200" height="200"><path d="M592.13913 438.53913c89.043478-42.295652 164.730435-33.391304 164.730435-33.391304 22.26087-55.652174 26.713043-120.208696 15.582609-184.765217C747.965217 75.686957 612.173913-22.26087 469.704348 4.452174 327.234783 28.93913 207.026087 142.469565 233.73913 287.165217c4.452174 31.165217 20.034783 80.13913 37.843479 115.756522L13.356522 779.130435c-8.904348 13.356522-15.582609 37.843478-11.130435 55.652174l11.130435 64.556521c-11.130435-62.330435 2.226087 22.26087 11.130435 22.26087l84.591304 2.226087c15.582609-2.226087 37.843478-17.808696 46.747826-31.165217l102.4-162.504348 89.043478 6.678261 120.208696-189.217392s24.486957-55.652174 124.660869-109.078261zM82.365217 805.843478l-22.260869 13.356522 6.678261-24.486957 242.643478-351.721739 17.808696 11.130435-244.869566 351.721739zM445.217391 151.373913c40.069565-57.878261 115.756522-71.234783 171.408696-31.165217 55.652174 40.069565 69.008696 117.982609 31.165217 175.860869-40.069565 57.878261-80.13913 17.808696-135.791304-22.260869-55.652174-42.295652-106.852174-66.782609-66.782609-122.434783z" p-id="2137"></path><path d="M981.704348 745.73913c0-24.486957 15.582609-44.521739 42.295652-53.426087-13.356522-62.330435-46.747826-115.756522-91.269565-155.826086-15.582609 15.582609-46.747826 20.034783-66.782609 8.904347-20.034783-13.356522-33.391304-37.843478-24.486956-62.330434-28.93913-8.904348-62.330435-15.582609-91.269566-15.582609-33.391304 0-62.330435 4.452174-91.269565 15.582609 8.904348 24.486957-4.452174 48.973913-24.486956 62.330434s-48.973913 8.904348-66.782609-8.904347c-46.747826 40.069565-77.913043 93.495652-91.269565 155.826086 24.486957 4.452174 42.295652 28.93913 42.295652 53.426087 0 24.486957-15.582609 44.521739-42.295652 53.426087 13.356522 62.330435 46.747826 115.756522 91.269565 155.826087 15.582609-15.582609 46.747826-20.034783 66.782609-8.904347 20.034783 13.356522 33.391304 37.843478 24.486956 62.330434 28.93913 8.904348 62.330435 15.582609 91.269565 15.582609 33.391304 0 62.330435-4.452174 91.269566-15.582609-8.904348-24.486957 4.452174-48.973913 24.486956-62.330434 20.034783-13.356522 48.973913-8.904348 66.782609 8.904347 46.747826-40.069565 77.913043-93.495652 91.269565-155.826087-24.486957-8.904348-42.295652-28.93913-42.295652-53.426087z m-235.965218 113.530435c-66.782609 0-120.208696-53.426087-120.208695-117.982608s53.426087-117.982609 120.208695-117.982609c66.782609 0 120.208696 53.426087 120.208696 117.982609s-53.426087 117.982609-120.208696 117.982608z" p-id="2138"></path></svg>