<?xml version="1.0" standalone="no"?><!DOCTYPE svg PUBLIC "-//W3C//DTD SVG 1.1//EN" "http://www.w3.org/Graphics/SVG/1.1/DTD/svg11.dtd"><svg t="1688345445336" class="icon" viewBox="0 0 1177 1024" version="1.1" xmlns="http://www.w3.org/2000/svg" p-id="1704" xmlns:xlink="http://www.w3.org/1999/xlink" width="229.8828125" height="200"><path d="M1144.32 43.52c-2.56-5.12-5.12-7.68-7.68-7.68l-2.56-2.56c-2.56-2.56-5.12-5.12-10.24-7.68l-2.56-2.56c-2.56-2.56-7.68-5.12-10.24-7.68h-2.56c-2.56-2.56-7.68-5.12-10.24-5.12h-2.56c-2.56-2.56-7.68-2.56-10.24-5.12h-2.56c-2.56 0-7.68-2.56-10.24-2.56h-2.56c-2.56 0-7.68-2.56-10.24-2.56H407.04c-76.8 0-140.8 64-140.8 140.8v135.68c0 15.36-7.68 33.28-23.04 40.96l-199.68 128c-25.6 17.92-43.52 46.08-43.52 79.36v281.6c0 51.2 40.96 92.16 92.16 92.16h28.16c0-15.36 2.56-30.72 5.12-43.52 7.68-28.16 20.48-53.76 40.96-74.24 5.12-7.68 12.8-12.8 20.48-17.92 15.36-10.24 30.72-20.48 46.08-25.6 2.56 0 2.56 0 5.12-2.56 7.68-2.56 15.36-5.12 25.6-7.68h5.12c7.68-2.56 17.92-2.56 28.16-2.56 97.28 0 174.08 79.36 174.08 176.64h258.56c0-25.6 5.12-48.64 15.36-69.12 2.56-7.68 7.68-12.8 10.24-20.48l2.56-2.56c7.68-12.8 17.92-25.6 28.16-35.84l2.56-2.56c12.8-10.24 25.6-20.48 38.4-25.6 23.04-10.24 46.08-17.92 71.68-17.92h5.12c97.28 0 174.08 79.36 174.08 176.64 53.76-5.12 97.28-51.2 97.28-107.52V138.24c7.68-35.84-7.68-69.12-30.72-94.72zM394.24 665.6H232.96c-33.28 0-58.88-25.6-58.88-58.88s25.6-58.88 58.88-58.88h115.2v-74.24c0-33.28 25.6-58.88 58.88-58.88s58.88 25.6 58.88 58.88v125.44c-2.56 35.84-33.28 66.56-71.68 66.56z" p-id="1705"></path><path d="M299.52 778.24c-7.68 0-15.36 0-23.04 2.56-2.56 0-5.12 2.56-7.68 2.56-5.12 0-10.24 2.56-15.36 5.12-2.56 0-5.12 2.56-7.68 2.56-5.12 2.56-7.68 5.12-12.8 7.68-2.56 2.56-5.12 2.56-7.68 5.12s-7.68 5.12-10.24 7.68l-5.12 5.12c-2.56 2.56-5.12 7.68-10.24 10.24-2.56 2.56-2.56 5.12-5.12 7.68-2.56 5.12-5.12 10.24-7.68 12.8 0 2.56-2.56 5.12-2.56 5.12 0 10.24-2.56 17.92-5.12 23.04-2.56 7.68-2.56 15.36-2.56 25.6 0 66.56 53.76 122.88 120.32 122.88 64 0 115.2-48.64 120.32-110.08v-12.8c2.56-66.56-51.2-122.88-117.76-122.88z" p-id="1706"></path><path d="M788.48 901.12a122.88 120.32 90 1 0 240.64 0 122.88 120.32 90 1 0-240.64 0Z" p-id="1707"></path></svg>
